<svg id="phone_1" data-name="phone 1" xmlns="http://www.w3.org/2000/svg" width="24" height="24" viewBox="0 0 24 24">
  <path id="phone_1_Background_Mask_" data-name="phone 1 (Background/Mask)" d="M0,0H24V24H0Z" fill="none"/>
  <g id="x32_7_Phone" data-name="x32 7 Phone" transform="translate(3.633 3.634)">
    <path id="Vector" d="M13.493,10.672a1.873,1.873,0,0,0-2.611.464l-.564.808A20.891,20.891,0,0,1,7.312,9.421,20.864,20.864,0,0,1,4.788,6.416L5.6,5.852A1.873,1.873,0,0,0,6.06,3.24L4.363.811A1.877,1.877,0,0,0,2.831,0a1.759,1.759,0,0,0-.61.109,3.364,3.364,0,0,0-.632.31L1.254.656a2.543,2.543,0,0,0-.237.211A3.369,3.369,0,0,0,.154,2.406c-.7,2.621,1.033,6.585,4.311,9.863,2.752,2.752,6.059,4.462,8.629,4.463h0a4.787,4.787,0,0,0,1.233-.152,3.369,3.369,0,0,0,1.54-.864,2.551,2.551,0,0,0,.222-.251l.236-.337a3.378,3.378,0,0,0,.3-.615,1.846,1.846,0,0,0-.7-2.142h0Z" fill="#1879c3"/>
  </g>
</svg>
