<svg xmlns="http://www.w3.org/2000/svg" xmlns:xlink="http://www.w3.org/1999/xlink" width="25" height="25" viewBox="0 0 25 25">
    <defs>
        <clipPath id="clip-path">
            <rect id="사각형_1" data-name="사각형 1" width="25" height="25" transform="translate(0 -0.91)" fill="#606060"/>
        </clipPath>
    </defs>
    <g id="search_2" data-name="search 2" transform="translate(0 0.91)" clip-path="url(#clip-path)">
        <path id="패스_1" data-name="패스 1" d="M19.146,21.26A10.624,10.624,0,1,1,29.77,10.636,10.624,10.624,0,0,1,19.146,21.26Zm0-18.213a7.589,7.589,0,0,0,0,15.177,7.775,7.775,0,0,0,4.623-1.571,7.435,7.435,0,0,0,2.965-6.018A7.589,7.589,0,0,0,19.146,3.048Z" transform="translate(-5.477 -0.21)" fill="#606060"/>
        <path id="패스_2" data-name="패스 2" d="M1.527,52.267A1.518,1.518,0,0,1,.44,49.68l.009-.009,5.707-5.707A1.551,1.551,0,1,1,8.311,46.2L2.6,51.827A1.517,1.517,0,0,1,1.527,52.267Z" transform="translate(0 -28.181)" fill="#606060"/>
    </g>
</svg>